<svg xmlns="http://www.w3.org/2000/svg" xmlns:xlink="http://www.w3.org/1999/xlink" width="200" height="60" viewBox="0 0 289.924 43.771" xmlns:v="https://vecta.io/nano">
  <g transform="matrix(.2646 0 0 .2646 -197.355881 -43.946762)">
    <path d="M879.447 305.186h-79.133a5.56 5.56 0 0 1-5.554-5.554v-79.133a5.56 5.56 0 0 1 5.554-5.554h79.133a5.56 5.56 0 0 1 5.553 5.554v79.133a5.56 5.56 0 0 1-5.553 5.554zm-51.367-62.474a5.56 5.56 0 0 0-5.554 5.554v23.6a5.56 5.56 0 0 0 5.554 5.553h23.6a5.56 5.56 0 0 0 5.553-5.553v-23.6a5.56 5.56 0 0 0-5.553-5.554zm-76.615-28.163h23.6c1.473 0 2.885.585 3.927 1.626a5.55 5.55 0 0 1 1.626 3.927v79.133c0 3.067-2.486 5.553-5.553 5.553h-23.6c-3.067 0-5.553-2.486-5.553-5.553v-79.133c0-1.473.585-2.885 1.626-3.927a5.55 5.55 0 0 1 3.927-1.626zm0-48.451h23.6c1.473 0 2.885.585 3.927 1.626a5.55 5.55 0 0 1 1.626 3.927v23.6c0 1.473-.585 2.885-1.626 3.927a5.55 5.55 0 0 1-3.927 1.626h-23.6c-3.066 0-5.552-2.486-5.553-5.552v-23.601c0-1.473.585-2.885 1.626-3.927a5.55 5.55 0 0 1 3.927-1.626zm48.451 0h79.134c3.067 0 5.553 2.486 5.553 5.553v23.6c0 3.067-2.486 5.553-5.553 5.553h-79.134c-3.066 0-5.552-2.486-5.553-5.552v-23.601c0-1.473.585-2.885 1.626-3.927a5.55 5.55 0 0 1 3.927-1.626z" fill="#FB5343"></path>
    <path d="M931.732 307V169.625h19.625V307z" fill="white"></path>
    <use xlink:href="#B" fill="white"></use>
    <use xlink:href="#C" fill="white"></use>
    <use xlink:href="#D" fill="white"></use>
    <path d="M1172.215 307v-98.125h19.625v13.109q2.99-5.826 8.663-10.119 5.75-4.37 12.726-4.37.23 0 3.143.307v21.695q-5.443-2.146-10.886-2.146-6.133 0-9.889 3.68-3.756 3.68-3.756 9.736V307z" fill="white"></path>
    <use xlink:href="#B" x="253.592" fill="white"></use>
    <use xlink:href="#D" x="200.543" fill="white"></use>
    <use xlink:href="#C" x="325.039" fill="white"></use>
    <path d="M1494.571 308.38q-10.349 0-17.785-3.143-7.359-3.143-11.729-9.199-4.37-6.056-6.363-14.182-1.993-8.203-1.993-19.012v-49.829q0-10.809 1.993-18.858 1.993-8.049 6.363-13.952 4.37-5.979 11.729-8.969 7.436-2.99 17.785-2.99 20.085 0 28.978 11.499 8.893 11.499 8.893 33.271v49.829q0 10.656-2.07 18.858-1.993 8.126-6.363 14.259-4.37 6.056-11.806 9.276-7.359 3.143-17.632 3.143zm-14.335-22.308q3.986 6.209 14.335 6.209 10.349 0 14.259-6.209 3.986-6.209 3.986-18.322v-59.642q0-11.959-3.91-17.862-3.91-5.903-14.335-5.903-10.426 0-14.335 5.903-3.91 5.903-3.91 17.862v59.642q0 12.112 3.91 18.322zm102.878 6.209q3.143 0 5.213-2.3 2.146-2.3 3.066-6.516.997-4.293 1.303-8.509.383-4.216.383-9.812 0-4.14-.077-10.962 0-6.823 0-10.272 0-3.45-.153-5.979-.153-2.606-.767-5.443-.613-2.836-1.687-4.676-.997-1.84-2.836-2.99-1.84-1.227-4.446-1.227-8.126 0-14.719 3.91v61.711q7.589 3.066 14.719 3.066zm4.906 16.099q-5.979 0-10.579-2.836-4.6-2.836-9.046-7.436V307h-19.625V169.702h19.625v48.909q2.76-2.913 4.14-4.216 1.38-1.303 3.986-3.296 2.683-1.993 5.52-2.76 2.836-.843 6.286-.843 4.983 0 8.893 1.84 3.91 1.763 6.439 4.293 2.53 2.53 4.293 7.283 1.763 4.753 2.606 8.586.92 3.833 1.38 10.349.46 6.516.537 10.579.077 3.986.077 11.039v1.303q0 6.439-.69 12.419-.613 5.979-2.376 12.189-1.687 6.209-4.37 10.732-2.606 4.523-7.053 7.436-4.37 2.836-10.042 2.836zm40.247-114.224v-19.625h19.625v19.625zm-4.906 137.375q-6.439 0-9.812-1.303v-13.952q2.683.537 4.906.537 9.813 0 9.813-11.422v-96.515h19.625v98.662q0 11.346-6.593 17.632-6.516 6.363-17.938 6.363z" fill="white"></path>
    <use xlink:href="#D" x="563.912" fill="white"></use>
    <path d="M1760.659 308.38q-7.129 0-12.419-2.376-5.213-2.376-8.356-6.209-3.143-3.833-5.06-9.736-1.917-5.979-2.683-11.882-.69-5.979-.843-13.875-.23-6.363 0-12.802.153-7.819.843-13.799.767-5.979 2.683-11.882 1.993-5.979 5.06-9.736 3.143-3.833 8.356-6.209 5.29-2.376 12.419-2.376 15.485 0 22.231 8.356 6.746 8.356 7.206 24.761v2.606h-19.625v-2.76q-.077-3.68-.537-6.439-.383-2.76-1.38-5.52-.92-2.76-2.99-4.216-1.993-1.533-4.906-1.533-2.913 0-4.906 1.763-1.993 1.687-3.066 4.906-.997 3.22-1.457 6.669-.46 3.373-.537 7.819-.307 9.506 0 28.671.153 4.216.613 7.436.46 3.143 1.457 6.133 1.073 2.913 3.066 4.523 1.993 1.61 4.83 1.61 2.606 0 4.446-.997 1.917-.997 2.913-2.453.997-1.457 1.533-3.91.613-2.453.767-4.523.153-2.146.153-5.366v-2.376h19.625v2.53q-.23 7.743-1.917 13.722-1.687 5.903-5.136 10.349-3.373 4.446-9.046 6.823-5.596 2.3-13.339 2.3z" fill="white"></path>
    <use xlink:href="#C" x="754.642" fill="white"></use>
  </g>
  <defs>
    <path id="B" d="M971.672 307v-98.125h19.625v10.579q4.37-3.986 7.129-6.056 2.76-2.146 7.589-3.986 4.906-1.917 10.426-1.917 6.286 0 10.196 4.6 3.91 4.6 3.91 11.269V307h-19.625v-73.594q0-5.136-1.457-7.436-1.457-2.376-5.903-2.376-2.53 0-5.06 1.073-2.453.997-3.68 1.917-1.227.843-3.526 2.76V307z"></path>
    <path id="C" d="M1074.934 308.38q-11.576 0-16.865-5.903-5.213-5.903-5.366-17.862v-61.021h-9.812v-14.719h9.813v-34.344h19.625v34.344h14.719v14.719h-14.719v57.265q0 5.903 1.61 8.663 1.61 2.76 6.516 2.76 2.146 0 6.593-.767v15.945q-7.359.92-12.112.92z"></path>
    <path id="D" d="M1128.519 308.38q-7.129 0-12.419-2.453-5.213-2.453-8.356-6.363-3.066-3.986-4.983-10.119-1.917-6.209-2.683-12.342-.69-6.209-.843-14.412-.23-6.439 0-12.879.23-7.666.997-13.569.843-5.979 2.836-11.576 1.993-5.596 5.136-9.199 3.22-3.603 8.356-5.75 5.213-2.223 12.112-2.223 6.286 0 11.039 1.687 4.83 1.61 7.973 4.983 3.22 3.296 5.29 7.359 2.146 4.063 3.22 9.889 1.073 5.75 1.457 11.346.46 5.596.46 12.879v2.3h-39.25v4.906q0 .997 0 3.143-.153 2.836-.077 5.903.153 2.99.307 5.903.153 2.913.843 5.596.69 2.606 1.687 4.6.997 1.993 2.76 3.143 1.84 1.15 4.293 1.15 3.066 0 5.06-1.15 1.993-1.227 2.913-3.603.997-2.376 1.38-4.753.383-2.376.46-5.979v-4.14h19.472v3.91q-.69 15.715-7.743 23.765-7.053 8.049-21.695 8.049zm-9.659-60.255h19.472v-5.903q-.077-3.91-.46-6.823-.383-2.913-1.38-5.826-.92-2.913-2.913-4.446-1.993-1.533-4.906-1.533-2.99 0-5.06 1.61-1.993 1.61-2.99 4.676-.92 2.99-1.303 5.903-.383 2.913-.46 6.976z"></path>
  </defs>
</svg>